# xmcd
#
# Track frame offsets:
#	180
#	19615
#	35744
#	44156
#	53046
#	69310
#	81222
#	91416
#	109574
#	120076
#	129511
#	142452
#	159569
#	174480
#	184741
#	193217
#
# Disc length: 2827 seconds
#
# Revision: 1
# Processed by: cddbd v1.4PL0 Copyright (c) Steve Scherf et al.
# Submitted via: audiograbber 1.80.04
#
DISCID=df0b0910
DTITLE=Михаил Гулько - Песни военных лет
DYEAR=1996
DGENRE=Soul
TTITLE0=Огонёк
TTITLE1=Прощай, любимый город
TTITLE2=Моя любимая
TTITLE3=В землянке
TTITLE4=Враги сожгли сожгли родную хату
TTITLE5=Тёмная ночь
TTITLE6=Солдатский вальс
TTITLE7=Одессит Мишка
TTITLE8=Реквием
TTITLE9=На братских могилах
TTITLE10=Песня военных корреспондентов
TTITLE11=Журавли
TTITLE12=Слепой скрипач
TTITLE13=Я так давно не видел маму
TTITLE14=Под звёздами Балканскими
TTITLE15=Одна победа
EXTD=Русский компакт диск RCD 18004 -=Шансон=
EXTT0=
EXTT1=
EXTT2=
EXTT3=
EXTT4=
EXTT5=
EXTT6=
EXTT7=
EXTT8=
EXTT9=
EXTT10=
EXTT11=
EXTT12=
EXTT13=
EXTT14=
EXTT15=
PLAYORDER=
